<?xml version="1.0" encoding="UTF-8"?>
<svg id="Layer_2" data-name="Layer 2" xmlns="http://www.w3.org/2000/svg" viewBox="0 0 731.08 284.65">
  <defs>
    <style>
      .cls-1 {
        fill: #ef3b56;
      }

      .cls-2 {
        fill: #fcd43d;
      }

      .cls-3 {
        fill: #6fcaef;
      }

      .cls-4 {
        fill: #fff;
      }
    </style>
  </defs>
  <g id="Layer_1-2" data-name="Layer 1">
    <g>
      <g>
        <path class="cls-4" d="M139.83,150.88v-60.76h16.86c5.72,0,9.96,1.18,12.72,3.53,2.76,2.35,4.14,5.94,4.14,10.75v3.65c0,2.38-.71,4.46-2.13,6.23-1.42,1.77-3.32,2.89-5.7,3.34v2.2c3.04.3,5.48,1.57,7.33,3.8,1.85,2.23,2.77,5.09,2.77,8.58v3.34c0,5.16-1.52,9.01-4.56,11.54-3.04,2.53-7.72,3.8-14.05,3.8h-17.39ZM146.13,116.33h11.47c3.39,0,5.87-.73,7.44-2.2,1.57-1.47,2.35-3.82,2.35-7.06v-1.75c0-3.24-.79-5.59-2.35-7.06-1.57-1.47-4.05-2.2-7.44-2.2h-11.47v20.28ZM146.13,144.96h12.99c3.65,0,6.29-.81,7.94-2.43,1.65-1.62,2.47-4.25,2.47-7.9v-2.05c0-3.65-.82-6.28-2.47-7.9-1.65-1.62-4.29-2.43-7.94-2.43h-12.99v22.71Z"/>
        <path class="cls-4" d="M212.2,151.64c-5.72,0-10-1.76-12.83-5.28-2.84-3.52-4.25-8.82-4.25-15.91v-40.33h6.3v40.63c0,5.57.81,9.52,2.43,11.85,1.62,2.33,4.4,3.49,8.35,3.49s6.73-1.16,8.35-3.49c1.62-2.33,2.43-6.28,2.43-11.85v-40.63h6.3v40.33c0,7.09-1.42,12.39-4.25,15.91-2.84,3.52-7.11,5.28-12.83,5.28Z"/>
        <path class="cls-4" d="M250.4,150.88v-5.7h13.97v-49.36h-13.97v-5.7h34.18v5.7h-13.97v49.36h13.97v5.7h-34.18Z"/>
        <path class="cls-4" d="M309.19,150.88v-60.76h6.23v55.06h24.45v5.7h-30.68Z"/>
        <path class="cls-4" d="M360.98,150.88v-60.76h14.81c6.48,0,11.58,1.95,15.3,5.85,3.72,3.9,5.58,9.11,5.58,15.65v18.08c0,6.43-1.86,11.57-5.58,15.42-3.72,3.85-8.82,5.77-15.3,5.77h-14.81ZM367.28,145.19h8.66c4.81,0,8.42-1.42,10.82-4.25,2.4-2.83,3.61-6.46,3.61-10.86v-18.83c0-4.41-1.2-8.08-3.61-11.01-2.41-2.94-6.01-4.4-10.82-4.4h-8.66v49.36Z"/>
        <path class="cls-4" d="M446.19,150.88v-60.76h35.85v5.7h-29.62v25.59h24.76v5.7h-24.76v23.77h-6.23Z"/>
        <path class="cls-4" d="M518.87,151.64c-6.03,0-10.63-1.85-13.82-5.54-3.19-3.7-4.78-9.09-4.78-16.18v-18.53c0-7.24,1.59-12.72,4.78-16.44,3.19-3.72,7.82-5.58,13.9-5.58s10.62,1.86,13.78,5.58c3.16,3.72,4.75,9.2,4.75,16.44v18.53c0,7.09-1.58,12.48-4.75,16.18-3.17,3.7-7.78,5.54-13.86,5.54ZM518.87,145.95c4.46,0,7.62-1.2,9.49-3.61,1.87-2.4,2.81-6.44,2.81-12.11v-19.14c0-5.77-.94-9.88-2.81-12.34-1.87-2.46-5.04-3.68-9.49-3.68s-7.62,1.23-9.49,3.68c-1.87,2.46-2.81,6.57-2.81,12.34v19.14c0,5.67.94,9.71,2.81,12.11,1.87,2.41,5.04,3.61,9.49,3.61Z"/>
        <path class="cls-4" d="M563.37,150.88h-6.3v-60.76h20.81c5.77,0,10.09,1.3,12.95,3.91,2.86,2.61,4.29,6.57,4.29,11.89v4.56c0,5.01-1.17,8.86-3.49,11.54-2.33,2.68-5.87,4.25-10.63,4.71l14.66,24.15h-7.29l-14.58-24.08h-10.41v24.08ZM563.37,121.27h14.58c3.9,0,6.68-.83,8.35-2.51s2.51-4.41,2.51-8.2v-4.78c0-3.49-.84-6.03-2.51-7.59s-4.46-2.35-8.35-2.35h-14.58v25.44Z"/>
      </g>
      <g>
        <path class="cls-4" d="M14.02,270.95H0v-82.23h14.02v82.23ZM14.02,284.65v-13.71h14.02v13.71h-14.02ZM28.04,270.95v-13.71h14.02v13.71h-14.02ZM42.06,257.24v-13.71h14.02v13.71h-14.02ZM70.11,188.72v54.82h-14.02v-54.82h14.02Z"/>
        <path class="cls-4" d="M84.37,243.54h14.02v27.41h42.06v13.71h-56.09v-41.12ZM154.48,188.72v13.71h-42.06v27.41h28.04v13.71h-42.06v-54.82h56.09Z"/>
        <path class="cls-4" d="M168.74,243.54h14.02v41.12h-14.02v-41.12ZM210.81,202.42v13.7h-14.02v27.41h-14.02v-54.82h14.02v13.71h14.02ZM238.85,188.72v54.82h-14.02v-13.71h-14.02v-13.71h14.02v-27.41h14.02ZM210.81,243.54h14.02v41.12h-14.02v-41.12Z"/>
        <path class="cls-4" d="M253.11,243.54h14.02v27.41h42.06v13.71h-56.09v-41.12ZM323.22,188.72v13.71h-42.06v27.41h28.04v13.71h-42.06v-54.82h56.09Z"/>
        <path class="cls-4" d="M337.48,257.24h14.02v13.71h42.06v13.71h-56.09v-27.41ZM407.59,188.72v41.12h-14.02v-27.41h-42.06v-13.71h56.09ZM351.5,257.24v-13.71h14.02v13.71h-14.02ZM393.57,229.83v13.71h-28.04v-13.71h28.04Z"/>
        <path class="cls-4" d="M435.88,270.95h-14.02v-27.41h14.02v27.41ZM449.9,243.54h-14.02v-54.82h14.02v54.82ZM463.92,270.95v13.71h-28.04v-13.71h28.04ZM463.92,243.54h14.02v27.41h-14.02v-27.41ZM491.96,188.72v54.82h-14.02v-54.82h14.02Z"/>
        <path class="cls-4" d="M506.23,243.54h14.02v27.41h42.06v13.71h-56.09v-41.12ZM576.33,188.72v13.71h-42.06v27.41h28.04v13.71h-42.06v-54.82h56.09Z"/>
        <path class="cls-4" d="M646.68,270.95v13.71h-56.09v-41.12h14.02v27.41h42.06ZM618.64,243.54h-14.02v-54.82h14.02v54.82Z"/>
        <path class="cls-4" d="M660.98,284.65v-13.71h14.02v13.71h-14.02ZM731.08,188.72v95.94h-14.02v-27.41h-28.04v13.71h-14.02v-27.41h14.02v-27.41h14.02v27.41h14.02v-27.41h-14.02v-13.7h14.02v-13.71h14.02Z"/>
      </g>
      <g>
        <polygon class="cls-2" points="303.8 0 311.18 16.43 329.08 18.37 315.74 30.46 319.43 48.09 303.8 39.13 288.18 48.09 291.86 30.46 278.52 18.37 296.42 16.43 303.8 0"/>
        <polygon class="cls-3" points="365.54 0 372.91 16.43 390.82 18.37 377.47 30.46 381.16 48.09 365.54 39.13 349.91 48.09 353.6 30.46 340.25 18.37 358.16 16.43 365.54 0"/>
        <polygon class="cls-1" points="427.27 0 434.65 16.43 452.55 18.37 439.21 30.46 442.9 48.09 427.27 39.13 411.65 48.09 415.34 30.46 401.99 18.37 419.89 16.43 427.27 0"/>
      </g>
    </g>
  </g>
</svg>