<?xml version="1.0" encoding="UTF-8"?>
<svg id="Layer_2" data-name="Layer 2" xmlns="http://www.w3.org/2000/svg" viewBox="0 0 140.01 33.98">
  <defs>
    <style>
      .cls-1 {
        fill: #f8bb2d;
      }

      .cls-2 {
        fill: #fff;
      }
    </style>
  </defs>
  <g id="Layer_1-2" data-name="Layer 1">
    <g>
      <path class="cls-1" d="M15.28,2.13c-.9-.63-2.44-1.36-3.46-1.66-2.29-.7-4.1-.3-5.3.12-2.33.81-3.79,1.88-5.1,3.84-2.06,3.02-1.76,7.94.75,10.72.56.66.86.55,3.04-1.03.07-.07-.22-.55-.68-1.11-1.01-1.25-1.61-3.54-1.31-4.83.98-4.05,5.96-6.25,9.19-4.02.71.48,2.96,2.48,4.98,4.44,3.04,2.87,3.94,3.54,4.69,3.47s1.01-.33,1.08-1.15c.12-.88-.22-1.4-1.94-2.96-1.16-1.06-2.09-2.03-2.09-2.21,0-.15.8-.78,1.76-1.36,6.31-3.95,13.09,3.92,7.84,9.09-.68.66-1.88,1.36-2.66,1.6-.9.22-5.07.42-10.25.42-9.69,0-10.2.12-12.76,2.36C-.22,20.76-.97,25.74,1.33,29.35c2.96,4.74,9.34,5.91,13.84,2.54l1.66-1.25,1.91,1.25c3.11,2.08,5.63,2.48,8.67,1.48,6.08-2.03,8.32-9.64,4.39-14.74-.45-.55-.68-.6-1.28-.3-1.84,1.03-1.79.96-.71,3.17.83,1.69.98,2.36.8,3.66-.53,3.26-3.01,5.43-6.16,5.43-2.44,0-3.22-.48-7.73-4.8-2.36-2.21-4.54-4.05-4.84-4.05-.56,0-1.76,1.15-1.76,1.69,0,.15,1.01,1.33,2.29,2.58l2.29,2.26-1.35,1.03c-4.77,3.59-11.56-.7-9.99-6.31.48-1.69,2.21-3.59,3.87-4.17.65-.27,4.59-.42,9.9-.42,9.8,0,10.97-.18,13.21-2.11C37.08,10.69,33.18.12,24.39.15c-2.56,0-3.94.52-6.31,2.26l-1.2.88-1.61-1.15.02-.02Z"/>
      <g>
        <path class="cls-2" d="M56.25,9.96c-.07.4-.2.75-.39,1.06-.18.31-.42.57-.7.79-.28.21-.6.37-.96.49-.36.11-.75.17-1.17.17-.75,0-1.41-.18-1.98-.55-.57-.37-1.01-.91-1.33-1.63-.31-.72-.47-1.61-.47-2.66s.16-1.9.47-2.62c.31-.72.76-1.27,1.32-1.65.57-.38,1.24-.57,2.01-.57.42,0,.82.06,1.18.18.37.12.69.29.97.52s.51.5.69.83c.18.32.3.68.35,1.09h3.17c-.1-.86-.33-1.62-.69-2.29-.36-.67-.82-1.23-1.39-1.69-.57-.46-1.22-.82-1.96-1.06-.73-.24-1.53-.36-2.39-.36-1.3,0-2.48.3-3.52.9-1.04.59-1.87,1.46-2.48,2.59s-.91,2.51-.91,4.13.3,2.99.9,4.12c.6,1.13,1.42,2,2.46,2.6,1.04.6,2.22.9,3.55.9.95,0,1.8-.14,2.56-.43.76-.29,1.41-.68,1.95-1.17.55-.5.99-1.06,1.31-1.69.33-.63.53-1.29.62-1.97h-3.17Z"/>
        <path class="cls-2" d="M64.8,9.77h2.29l2.81,5.26h3.46l-3.15-5.76s.09-.04.14-.06c.81-.38,1.42-.92,1.85-1.62.42-.71.64-1.56.64-2.54s-.21-1.83-.63-2.56c-.42-.73-1.02-1.29-1.82-1.69-.79-.4-1.75-.6-2.87-.6h-5.85v14.83h3.13v-5.26ZM66.91,2.77c.6,0,1.1.09,1.5.27.4.17.7.43.89.77.2.34.3.75.3,1.25s-.1.9-.3,1.22c-.19.33-.49.57-.88.74-.4.16-.89.25-1.49.25h-2.13V2.77h2.11Z"/>
        <path class="cls-2" d="M78.7,11.65h5.35l1.1,3.38h3.36L83.4.2h-4.04l-5.12,14.83h3.36l1.1-3.38ZM81.44,3.59l1.82,5.61h-3.76l1.83-5.61h.12Z"/>
        <polygon class="cls-2" points="93.43 8.9 99.46 8.9 99.46 6.32 93.43 6.32 93.43 2.79 100.11 2.79 100.11 .2 90.29 .2 90.29 15.03 93.43 15.03 93.43 8.9"/>
        <polygon class="cls-2" points="106.19 15.03 109.29 15.03 109.29 2.79 113.83 2.79 113.83 .2 101.66 .2 101.66 2.79 106.19 2.79 106.19 15.03"/>
        <polygon class="cls-2" points="125.86 12.44 118.97 12.44 118.97 8.9 125.31 8.9 125.31 6.32 118.97 6.32 118.97 2.79 125.83 2.79 125.83 .2 115.84 .2 115.84 15.03 125.86 15.03 125.86 12.44"/>
        <path class="cls-2" d="M140.01,15.03l-3.15-5.76s.09-.04.14-.06c.81-.38,1.42-.92,1.85-1.62.42-.71.64-1.56.64-2.54s-.21-1.83-.63-2.56c-.42-.73-1.02-1.29-1.82-1.69-.79-.4-1.75-.6-2.87-.6h-5.85v14.83h3.13v-5.26h2.29l2.81,5.26h3.46ZM131.46,2.77h2.11c.6,0,1.1.09,1.5.27.4.17.7.43.89.77.2.34.3.75.3,1.25s-.1.9-.3,1.22c-.19.33-.49.57-.88.74-.4.16-.89.25-1.49.25h-2.13V2.77Z"/>
        <path class="cls-2" d="M56.54,26.64c-.4-.35-.86-.65-1.4-.89-.54-.24-1.13-.43-1.78-.58l-1.33-.32c-.32-.07-.63-.16-.91-.26-.28-.11-.54-.23-.75-.37-.22-.14-.39-.32-.51-.51-.12-.2-.18-.43-.17-.7,0-.32.09-.6.28-.85.19-.25.46-.45.81-.59.35-.14.78-.22,1.3-.22.75,0,1.35.16,1.79.48.44.32.69.78.75,1.36h3c-.01-.88-.25-1.66-.71-2.33-.46-.67-1.1-1.19-1.93-1.57-.82-.38-1.78-.56-2.88-.56s-2.05.19-2.9.56c-.85.38-1.52.9-2.01,1.57-.48.67-.72,1.46-.72,2.35,0,1.1.35,1.97,1.08,2.61.72.65,1.71,1.12,2.96,1.43l1.61.41c.54.13,1,.28,1.37.43.38.16.66.35.85.58.2.23.3.51.3.84,0,.36-.11.67-.33.95-.22.28-.52.49-.92.64-.39.15-.85.23-1.38.23s-1.03-.08-1.46-.25c-.42-.17-.76-.42-1.02-.75-.25-.33-.39-.75-.43-1.25h-3.03c.02,1.07.28,1.96.77,2.69.5.72,1.19,1.26,2.07,1.63.89.37,1.93.55,3.13.55s2.24-.18,3.09-.54c.86-.37,1.52-.88,1.97-1.54.46-.67.69-1.45.7-2.36,0-.62-.12-1.17-.34-1.64-.22-.48-.52-.89-.92-1.25Z"/>
        <polygon class="cls-2" points="71.52 18.94 59.35 18.94 59.35 21.53 63.89 21.53 63.89 33.77 66.98 33.77 66.98 21.53 71.52 21.53 71.52 18.94"/>
        <path class="cls-2" d="M76.03,18.94l-5.12,14.83h3.36l1.1-3.38h5.35l1.1,3.38h3.36l-5.11-14.83h-4.04ZM76.17,27.94l1.83-5.61h.12l1.82,5.61h-3.76Z"/>
        <polygon class="cls-2" points="84.59 21.53 89.13 21.53 89.13 33.77 92.23 33.77 92.23 21.53 96.77 21.53 96.77 18.94 84.59 18.94 84.59 21.53"/>
        <rect class="cls-2" x="98.77" y="18.94" width="3.13" height="14.83"/>
        <path class="cls-2" d="M114.7,19.64c-1.05-.6-2.23-.9-3.53-.9s-2.5.3-3.55.9c-1.05.59-1.88,1.46-2.48,2.59-.61,1.13-.91,2.51-.91,4.13s.3,2.99.91,4.12c.61,1.13,1.44,2,2.48,2.6,1.05.6,2.23.9,3.55.9s2.49-.3,3.53-.89c1.05-.6,1.88-1.46,2.49-2.6.61-1.13.92-2.51.92-4.13s-.31-2.99-.92-4.13c-.61-1.13-1.44-2-2.49-2.59ZM114.46,29c-.31.72-.75,1.26-1.31,1.64-.56.37-1.23.56-1.98.56s-1.42-.19-1.98-.56c-.56-.37-1-.92-1.32-1.64-.31-.72-.46-1.6-.46-2.65s.15-1.93.46-2.65c.31-.72.75-1.26,1.32-1.64.56-.37,1.23-.56,1.98-.56s1.42.19,1.98.56c.56.37,1,.92,1.31,1.64.31.72.47,1.6.47,2.65s-.16,1.93-.47,2.65Z"/>
        <polygon class="cls-2" points="129.72 28.27 129.59 28.27 123.19 18.94 120.44 18.94 120.44 33.77 123.57 33.77 123.57 24.44 123.68 24.44 130.13 33.77 132.84 33.77 132.84 18.94 129.72 18.94 129.72 28.27"/>
      </g>
    </g>
  </g>
</svg>