<?xml version="1.0" encoding="UTF-8"?>
<svg id="Layer_2" data-name="Layer 2" xmlns="http://www.w3.org/2000/svg" viewBox="0 0 64.6 51.78">
  <defs>
    <style>
      .cls-1 {
        fill: #f2f2f2;
      }
    </style>
  </defs>
  <g id="Layer_1-2" data-name="Layer 1">
    <g>
      <path class="cls-1" d="M61.31,12.14c-.63,0-1.19-.14-1.68-.42-.5-.28-.89-.66-1.17-1.15-.29-.49-.43-1.05-.43-1.69s.14-1.2.43-1.69c.29-.49.68-.87,1.17-1.15.5-.28,1.06-.42,1.68-.42s1.19.14,1.68.42c.5.28.89.66,1.17,1.15.29.49.43,1.05.43,1.69s-.14,1.2-.43,1.69c-.29.49-.68.87-1.17,1.15-.5.28-1.06.42-1.68.42ZM61.31,11.48c.78,0,1.41-.24,1.89-.71s.71-1.1.71-1.89-.24-1.41-.71-1.89c-.48-.48-1.1-.71-1.89-.71s-1.41.24-1.89.71c-.47.48-.71,1.1-.71,1.89s.24,1.41.71,1.89,1.1.71,1.89.71ZM60.18,10.59v-3.48h1.33c.39,0,.68.09.88.28.2.19.3.41.3.66,0,.2-.05.37-.15.52-.1.15-.26.27-.48.35v.16c.18.01.31.07.38.17.08.1.12.25.12.42v.91h-.66v-.94c0-.22-.11-.33-.33-.33h-.74v1.27h-.66ZM60.84,8.72h.67c.18,0,.31-.05.39-.16.08-.1.13-.22.13-.36,0-.15-.04-.27-.13-.36s-.21-.14-.39-.14h-.67v1.02Z"/>
      <path class="cls-1" d="M.55,38.74V0l12.21,1.04v3.99l1.66.11c.79-1.16,2.09-2.12,3.87-2.87,1.75-.74,4.01-.98,6.75-.74,2.88.25,5.13.91,6.79,1.97,1.63,1.04,2.86,2.32,3.71,3.82l1.33.08c.82-1.34,1.98-2.4,3.45-3.19,1.44-.78,3.46-1.05,6-.82,2,.18,3.78.73,5.34,1.64,1.54.9,2.75,2.16,3.65,3.78.89,1.6,1.33,3.56,1.33,5.91v19.09L.55,38.74Z"/>
      <g>
        <path class="cls-1" d="M1,47.64c0,.76.44,1.2,1.24,1.22h.07c.82.03,1.28-.41,1.29-1.16v-.05c0-.44-.18-.75-.48-.88l-1.84-.77c-.78-.32-1.17-.91-1.17-1.69v-.13c0-1.23.81-2.01,2.19-2.09s2.28.63,2.28,1.95v.39s-1.06.03-1.06.03v-.28c0-.78-.43-1.21-1.2-1.17h-.07c-.75.04-1.16.46-1.17,1.15v.05c0,.37.22.71.55.84l1.85.75c.8.33,1.19.9,1.19,1.78v.13c0,1.34-.94,2.13-2.4,2.07S0,48.9,0,47.64v-.52s1,0,1,0v.52Z"/>
        <path class="cls-1" d="M9.38,49.96l-1.19-.05.02-6.69c0-.2-.11-.29-.29-.29l-1.85.08v-1.04s5.67-.32,5.67-.32v1.12s-2.03.09-2.03.09c-.19,0-.29.12-.3.32l-.03,6.78Z"/>
        <path class="cls-1" d="M18.38,41.28l1.51-.09-.03,6.22c0,1.85-1.33,3.04-3.27,2.96-1.84-.08-3.02-1.29-3.01-3.02l.02-5.81,1.35-.08-.03,5.91c0,.98.65,1.71,1.62,1.74h.1c.98.03,1.7-.69,1.7-1.71l.03-6.14Z"/>
        <path class="cls-1" d="M22.4,50.48l.05-9.43,3.64-.21c2.36-.13,4.01,1.14,3.99,3.2l-.02,3.34c-.01,2.05-1.65,3.33-4.03,3.24l-3.63-.15ZM24.04,48.93c0,.22.13.35.37.35l1.54.04c1.29.03,2.25-.77,2.26-1.88l.02-3.47c0-1.12-.95-1.89-2.24-1.83l-1.54.07c-.24.01-.37.13-.38.35l-.03,6.37Z"/>
        <path class="cls-1" d="M32.83,41.77v-1.31s8.51-.48,8.51-.48v1.42s-2.82.13-2.82.13c-.34.02-.53.16-.53.43l-.05,7.38c0,.25.19.4.53.41l2.81.08v1.43s-8.5-.34-8.5-.34v-1.33s2.52.07,2.52.07c.32,0,.52-.12.53-.37l.05-7.24c0-.26-.2-.39-.52-.38l-2.51.11Z"/>
        <path class="cls-1" d="M44.73,43.52c.02-2.35,2.27-4.04,5.81-4.25,3.75-.22,6.38,1.34,6.35,3.94l-.04,4.52c-.02,2.57-2.68,4.19-6.42,4.04-3.53-.15-5.75-1.81-5.74-4.14l.03-4.11ZM50.37,50.16h.18c1.98.06,3.4-.91,3.41-2.34l.04-4.66c.01-1.43-1.39-2.36-3.37-2.27h-.18c-1.92.1-3.22,1.1-3.23,2.45l-.04,4.41c-.01,1.35,1.27,2.35,3.19,2.4Z"/>
      </g>
    </g>
  </g>
</svg>