<?xml version="1.0" encoding="UTF-8"?>
<svg id="Layer_2" data-name="Layer 2" xmlns="http://www.w3.org/2000/svg" viewBox="0 0 91.48 52.42">
  <defs>
    <style>
      .cls-1 {
        fill: #fff;
      }

      .cls-2 {
        fill: #999;
      }
    </style>
  </defs>
  <g id="Layer_1-2" data-name="Layer 1">
    <g>
      <path class="cls-2" d="M0,1.62V0h11.07v1.62h-4.47v10.52h-2.1V1.62H0Z"/>
      <path class="cls-2" d="M15.62,2.99c.53-.26,1.14-.39,1.81-.39,1.19,0,2.12.32,2.8.97.67.64,1.01,1.59,1.01,2.82v5.76h-2.06v-5.41c0-.82-.21-1.45-.64-1.89-.43-.44-1.02-.65-1.76-.65-.8,0-1.43.25-1.91.74s-.72,1.22-.72,2.16v5.04h-2.06V0h2.06v4.1h.2c.32-.48.74-.85,1.28-1.11Z"/>
      <path class="cls-2" d="M23.39,10.96c-.82-.91-1.23-2.07-1.23-3.49,0-.94.18-1.78.55-2.51.37-.73.92-1.3,1.65-1.73.74-.42,1.64-.63,2.72-.63,1.54,0,2.71.42,3.5,1.26s1.19,1.97,1.19,3.37c0,.31-.01.52-.04.64h-7.58c.09,2.05,1.08,3.07,2.98,3.07.76,0,1.36-.16,1.79-.47s.73-.75.87-1.31h1.97c-.17.92-.63,1.68-1.39,2.27-.75.6-1.86.89-3.3.89-1.64,0-2.88-.45-3.7-1.36ZM29.8,6.64c-.04-.9-.29-1.57-.76-2.01-.47-.45-1.11-.67-1.92-.67s-1.52.23-2.02.68c-.5.45-.8,1.12-.9,2h5.61,0Z"/>
      <path class="cls-1" d="M2.89,18.37v5.13h6.86v-5.13h2.15v12.14h-2.15v-5.39H2.89v5.39H.74v-12.14h2.15Z"/>
      <path class="cls-1" d="M18.21,30.3c-.58.29-1.3.44-2.16.44-.92,0-1.67-.23-2.26-.69s-.88-1.11-.88-1.96c0-.76.24-1.37.72-1.82s1.27-.77,2.37-.96l2.34-.39c.52-.09.87-.2,1.07-.35.2-.15.29-.38.29-.7,0-.47-.17-.83-.51-1.08-.34-.26-.9-.39-1.7-.39-1.61,0-2.41.63-2.41,1.88h-1.97c0-1.02.38-1.82,1.15-2.41.76-.59,1.83-.88,3.21-.88s2.37.26,3.04.79,1.01,1.27,1.02,2.23l.11,6.49h-1.8l-.06-1.36h-.24c-.31.48-.75.87-1.33,1.16h0ZM16.64,29.38c.65,0,1.21-.14,1.67-.41.47-.28.82-.64,1.05-1.1.23-.46.35-.95.35-1.46v-.59l-3,.55c-.59.11-1.03.29-1.32.55-.29.26-.44.6-.44,1.03,0,.96.56,1.43,1.69,1.43h0Z"/>
      <path class="cls-1" d="M23.22,23.35c.38-.74.95-1.32,1.71-1.75.76-.43,1.69-.64,2.8-.64,1.47,0,2.61.35,3.42,1.06.81.71,1.26,1.63,1.34,2.79h-1.99c-.11-.77-.4-1.35-.87-1.72-.47-.37-1.08-.56-1.86-.56-.98,0-1.74.27-2.27.81s-.8,1.38-.8,2.52.26,1.94.77,2.48c.52.54,1.25.81,2.21.81.84,0,1.51-.21,1.99-.63.48-.42.77-1.01.85-1.78h1.99c-.04.76-.24,1.44-.62,2.03-.37.6-.91,1.06-1.62,1.41-.71.34-1.56.52-2.56.52-1.1,0-2.04-.21-2.8-.63-.77-.42-1.34-1-1.71-1.73-.37-.73-.56-1.55-.56-2.47s.19-1.77.57-2.5h0Z"/>
      <path class="cls-1" d="M35.58,28.13v2.37h-2.04v-12.14h2.04v7.43l4.87-4.62h2.48l-4.34,4.12,4.54,5.2h-2.45l-3.38-4.01-1.73,1.64h0Z"/>
      <path class="cls-1" d="M48.53,30.3c-.58.29-1.3.44-2.16.44-.92,0-1.67-.23-2.26-.69s-.88-1.11-.88-1.96c0-.76.24-1.37.72-1.82.48-.45,1.27-.77,2.37-.96l2.34-.39c.52-.09.87-.2,1.07-.35s.29-.38.29-.7c0-.47-.17-.83-.51-1.08-.34-.26-.9-.39-1.7-.39-1.61,0-2.41.63-2.41,1.88h-1.97c0-1.02.38-1.82,1.15-2.41.76-.59,1.83-.88,3.21-.88s2.37.26,3.04.79,1.01,1.27,1.02,2.23l.11,6.49h-1.8l-.06-1.36h-.24c-.31.48-.75.87-1.33,1.16h0ZM46.96,29.38c.65,0,1.21-.14,1.67-.41.47-.28.82-.64,1.05-1.1.23-.46.35-.95.35-1.46v-.59l-3,.55c-.59.11-1.03.29-1.32.55-.29.26-.44.6-.44,1.03,0,.96.56,1.43,1.69,1.43h0Z"/>
      <path class="cls-1" d="M52.42,22.69l.02-1.51h2.56v-.2l-.61-.24c-.29-.12-.44-.34-.44-.66v-1.8h2.37v2.89l3,.02v1.51h-3.01v6.25h3.24v1.56h-2.83c-.92,0-1.55-.17-1.9-.52-.35-.35-.52-.92-.52-1.72v-5.57h-1.86,0Z"/>
      <path class="cls-1" d="M64.09,21.36c.53-.26,1.14-.39,1.81-.39,1.19,0,2.12.32,2.8.97.67.64,1.01,1.59,1.01,2.82v5.76h-2.06v-5.41c0-.82-.21-1.45-.64-1.89-.43-.44-1.02-.65-1.76-.65-.8,0-1.43.25-1.91.74s-.72,1.22-.72,2.16v5.04h-2.06v-12.14h2.06v4.1h.2c.32-.48.74-.85,1.28-1.11h0Z"/>
      <path class="cls-1" d="M72.9,30.06c-.77-.42-1.34-1-1.71-1.73-.37-.73-.56-1.55-.56-2.47s.19-1.77.56-2.5c.37-.74.94-1.32,1.71-1.75.76-.43,1.72-.64,2.86-.64s2.09.21,2.85.64c.76.43,1.33,1.01,1.7,1.75.37.74.56,1.57.56,2.49s-.19,1.73-.56,2.45c-.37.73-.94,1.31-1.7,1.74-.76.43-1.71.64-2.85.64s-2.09-.21-2.86-.63ZM73.48,28.3c.53.55,1.29.83,2.28.83s1.74-.28,2.27-.83c.53-.55.8-1.37.8-2.45s-.27-1.9-.8-2.47c-.53-.57-1.29-.85-2.27-.85s-1.75.28-2.28.84-.79,1.39-.79,2.48.26,1.89.79,2.45Z"/>
      <path class="cls-1" d="M85.4,21.36c.52-.26,1.12-.39,1.81-.39,1.19,0,2.11.32,2.78.97.66.64.99,1.59.99,2.82v5.76h-2.02v-5.41c0-.82-.21-1.45-.64-1.89-.43-.44-1.02-.65-1.77-.65-.81,0-1.45.25-1.92.74s-.71,1.22-.71,2.16v5.04h-2.04v-9.32h2.04v1.29h.2c.33-.48.76-.85,1.28-1.11h0Z"/>
      <path class="cls-2" d="M19.9,47.81c-1.02.83-2.5,1.25-4.42,1.25-1.43,0-2.64-.27-3.6-.81-.97-.54-1.69-1.28-2.16-2.23-.47-.95-.71-2.04-.71-3.26s.24-2.23.71-3.16c.47-.93,1.19-1.67,2.17-2.21.98-.55,2.17-.82,3.6-.82,1.85,0,3.28.39,4.3,1.18,1.02.79,1.64,1.91,1.88,3.38h-2.15c-.18-.98-.61-1.71-1.27-2.19s-1.57-.72-2.72-.72c-1.4,0-2.46.39-3.2,1.16s-1.1,1.9-1.1,3.38.36,2.69,1.08,3.47c.72.79,1.78,1.18,3.17,1.18,2.43,0,3.79-1.07,4.1-3.2h2.17c-.2,1.57-.81,2.77-1.83,3.6h0Z"/>
      <path class="cls-2" d="M25.02,48.43c-.77-.42-1.34-1-1.71-1.73-.37-.73-.56-1.55-.56-2.47s.19-1.77.56-2.5c.37-.74.94-1.32,1.71-1.75.76-.43,1.72-.64,2.86-.64s2.09.21,2.85.64c.76.43,1.33,1.01,1.7,1.75s.56,1.57.56,2.49-.19,1.73-.56,2.45c-.37.73-.94,1.31-1.7,1.74-.76.43-1.71.64-2.85.64s-2.09-.21-2.86-.63ZM25.6,46.67c.53.55,1.29.83,2.28.83s1.74-.28,2.27-.83c.53-.55.8-1.37.8-2.45s-.27-1.9-.8-2.47c-.53-.57-1.29-.85-2.27-.85s-1.75.28-2.28.84c-.53.56-.79,1.39-.79,2.48s.26,1.89.79,2.45Z"/>
      <path class="cls-2" d="M34,39.55h2.06v1.23h.2c.32-.47.73-.82,1.24-1.08.51-.25,1.09-.38,1.74-.38.75,0,1.42.14,2,.41.59.28,1.03.68,1.32,1.2h.24c.67-1.08,1.72-1.62,3.13-1.62,1.2,0,2.15.33,2.86.98.71.65,1.06,1.59,1.06,2.81v5.76h-2.06v-5.53c0-.77-.22-1.37-.67-1.78-.45-.41-1.04-.63-1.78-.63-.6,0-1.11.16-1.54.47-.43.31-.71.75-.83,1.31v6.16h-2.02v-5.63c0-.77-.21-1.35-.63-1.74s-.99-.58-1.73-.58c-.79,0-1.41.24-1.86.72s-.68,1.18-.68,2.1v5.13h-2.06v-9.32h0Z"/>
      <path class="cls-2" d="M50.86,39.55h2.04v1.27h.24c.71-.99,1.83-1.49,3.35-1.49s2.55.44,3.31,1.32c.76.88,1.14,2.05,1.14,3.51s-.38,2.64-1.15,3.54c-.77.9-1.87,1.35-3.3,1.35-1.54,0-2.66-.52-3.36-1.54h-.22v4.54h-2.04v-12.5h0ZM53.73,46.61c.55.59,1.29.88,2.23.88s1.65-.28,2.16-.84.76-1.39.76-2.48-.26-1.9-.77-2.45c-.52-.56-1.24-.84-2.19-.84s-1.65.29-2.2.87c-.55.58-.82,1.38-.82,2.41s.28,1.88.83,2.46h0Z"/>
      <path class="cls-2" d="M67.07,48.67c-.58.29-1.3.44-2.16.44-.92,0-1.67-.23-2.26-.69-.59-.46-.88-1.11-.88-1.96,0-.76.24-1.37.72-1.82s1.27-.77,2.37-.96l2.34-.39c.52-.09.87-.2,1.07-.35s.29-.38.29-.7c0-.47-.17-.83-.51-1.08s-.9-.39-1.7-.39c-1.61,0-2.41.63-2.41,1.88h-1.97c0-1.02.38-1.82,1.15-2.41.76-.59,1.83-.88,3.21-.88s2.37.26,3.04.79,1.01,1.27,1.02,2.23l.11,6.49h-1.8l-.06-1.36h-.24c-.31.48-.75.87-1.33,1.16h0ZM65.5,47.76c.65,0,1.21-.14,1.67-.41.47-.28.82-.64,1.05-1.1.23-.46.35-.95.35-1.46v-.59l-3,.55c-.59.11-1.03.29-1.32.55-.29.26-.44.6-.44,1.03,0,.96.56,1.43,1.69,1.43h0Z"/>
      <path class="cls-2" d="M75.03,39.73c.52-.26,1.12-.39,1.81-.39,1.19,0,2.11.32,2.78.97.66.64.99,1.59.99,2.82v5.76h-2.02v-5.41c0-.82-.21-1.45-.64-1.89-.43-.44-1.02-.65-1.77-.65-.81,0-1.45.25-1.92.74-.47.5-.71,1.22-.71,2.16v5.04h-2.04v-9.32h2.04v1.29h.2c.33-.48.76-.85,1.28-1.11h0Z"/>
      <path class="cls-2" d="M82.26,50.09l1.19.5c.16.06.3.09.42.09.27,0,.47-.13.59-.39l.68-1.53-4.17-9.21h2.13l3.07,7.45,3.22-7.45h2.08l-5.3,11.4c-.23.48-.54.84-.91,1.09-.37.25-.81.38-1.3.38-.53,0-1.1-.15-1.71-.44l-.72-.31.72-1.58h0Z"/>
    </g>
  </g>
</svg>