<?xml version="1.0" encoding="UTF-8"?>
<svg id="Layer_2" data-name="Layer 2" xmlns="http://www.w3.org/2000/svg" viewBox="0 0 320.89 309.11">
  <defs>
    <style>
      .cls-1 {
        stroke: #6fcaef;
      }

      .cls-1, .cls-2, .cls-3 {
        fill: none;
        stroke-miterlimit: 10;
      }

      .cls-2 {
        stroke: #ef3b56;
      }

      .cls-3 {
        stroke: #fcd43d;
      }

      .cls-4 {
        fill: #fff;
      }
    </style>
  </defs>
  <g id="Layer_1-2" data-name="Layer 1">
    <g>
      <g>
        <path class="cls-4" d="M136.76,84.3c-.46-.48-1.36-.31-1.92-.39l-1.06-2.3,2.39-.17c.9.49,1.79,1.49,2.46,2.34.49.63,0,1.71-.31,2.16l-1.57-1.66Z"/>
        <path class="cls-4" d="M198.02,98.35c.23.3.48.57.6.87.08.2-1.14,1.95-1.92,2.43-.71.17-2.02.14-2-.67-.35-.06-.49-.19-.28-.52.12-.45.48-.8.94-.92.33-.47.8-.9,1.41-1.27.03-.07.16-.15.23-.18.27-.33.61-.24,1.03.27Z"/>
        <path class="cls-4" d="M194.43,100.11c.2-.07.2.05,0,.35.02.87-2.1.4-2.59.03-.52-.39.1-.62.36.11.64.09,1.02.32,1.12.69-1.24.65-2.78.98-3.92-.38.96-.73,1.76-1.66,2.84-2.05.34.66.64,1.14,1.04,1.38.31.19.83-.02,1.16-.14Z"/>
        <path class="cls-4" d="M194.42,100.46c.1.04.27.14.36.23.06.06.02.2-.07.29.3.39.1.5-.61.35l-.78-.04-2.06-.41c.16-.03.42-.22.42-.36,0-.16-.25-.4-.05-.78.91.6,1.88,1.15,2.8.72Z"/>
        <path class="cls-4" d="M196.7,101.65c-.81.49-1.87.09-2.61-.32l.61-.35c.45.61,1.37.65,2,.67Z"/>
        <path class="cls-4" d="M196.77,98.27c-.26.67-.92.77-1.41,1.27-.16.1-.26.16-.39-.02.48-.56,1.05-.99,1.8-1.25Z"/>
        <path class="cls-4" d="M195.35,99.54l-.94.92v-.35c.02-.34.41-.43.55-.59l.39.02Z"/>
        <path class="cls-4" d="M198.02,98.35l-1.03-.27c.03-.27.41-.65.6-.45.18.18.27.51.42.71Z"/>
        <g>
          <path class="cls-4" d="M129.26,83.69c-.19.45-.63,1.37-1.24,1.35-.89-.03-2.19-.19-2.92-.69-.66-.52-.99-1.69-1.29-2.45-.08-.46.4-.96.65-1.36,1.91,1.52,1.7,3.1,4.8,3.15Z"/>
          <path class="cls-4" d="M127.25,83.69c-.38.69-1.25.9-1.95.2l1.95-.2Z"/>
        </g>
        <path class="cls-4" d="M115.52,79.73c-.65.26-1.73.41-2.31.03-.72-.47-1.08-1.43-1.56-2.07,1.89-.51,2.5.41,3.88,2.04Z"/>
        <g>
          <path class="cls-4" d="M85.65,95.15c.25.37.47.78.67,1.22l.88,1.09c.65.8,2.43.39,1.88,4.81-.17-.23-.08-.36-.21-.77-.42.09-.34.4-.29.5.16.32-.36.53-.54.28-.12-.17-.06-.76-.25-.9-.17-.13-.53.32-.82.33l-4.2.12c0-.81.18-1.71-.21-2.38s-1.31-.45-1.83-.51l1.45-1.48.58-.14,1.76-2.58c.36-.1.73.04,1.12.41Z"/>
          <path class="cls-4" d="M87.79,92.31l-1.2.38c-.34.76-.66,1.12-.98,1.07-.39.13-.37-.17.05-.87-.16-1.04,1.18-2.04,2.02-2.65l5.78-2.26c.74-.29,1.31-.96,2.23-.26l-2.93,3.03-4.97,1.57Z"/>
          <path class="cls-4" d="M85.6,93.76c.34.27.26,1.02.05,1.39-.18.26-.16.67-.48.83.2-.94-.65-1-.7-.36l-1.7,2.27c-.15.21-.64-.18-.58-.44,1.04-1.06,1.51-2.6,2.57-3.68.25-.46.54-.75.89-.88l-.05.87Z"/>
          <path class="cls-4" d="M87.79,92.31c-.23.32-.84.4-1.14.69-.95.92-.73,2.3-.33,3.37-.32-.4-.62-.68-.67-1.22-.04-.46-.09-.92-.05-1.39.5-.08.43-.6.51-.91.19-.78,1.23-.4,1.67-.54Z"/>
          <path class="cls-4" d="M87.67,90.23c-.77.84-1.67,1.57-2.02,2.65-.13.43-.62.61-.89.88.74-1.73,1.35-2.92,2.9-3.53Z"/>
          <g>
            <path class="cls-4" d="M115.98,82.74c.18.19.22.29-.03.4-.58.2-.77.57-.57,1.12-.96.64-1.17,1.4-.63,2.26.36,1.25.32,2.43-.14,3.54.63.54,1.17,1.25,1.6,2.11,1.01.34,1.3.76.88,1.27h.32c-.8-.87-1.56-1.82-2.3-2.83-.04-.81.06-2.27,1.09-1.83.26.63.39.35.41-.82-1-.23-.92-1.66-.01-2.02l.29.17c.29,1.77.47,3.56.56,5.36l2.23,3.27c1.42-.5,2.96-.93,4.23-.27l2.78,1.44,6.6-.36c.67-.04,1.89.3,2.39.72,1.74,2.15,3.68,3.84,2.96,6.38-.11.23-.79.17-1.02.09-1.07.91-.71,2.96.27,4.03.17.77,2.42,1.76,4.64,1.77,3.02,0,5.9-.03,8.86-.75.78-.19,1.53-.32,2.23-.23-.06.54.45.57.24.04,3.4-.89,7-1.4,10.75-1.59,1.39-.07,2.81-.41,4.11.21l1.35,2.4,6.37,4.26c1.1.74,1.94.5,2.96-.13l4.1-.8c1.93-2.32,4.07-2.71,6.41-3.47,3.51-1.15,5.04-5.47,10.05-3.19l5.6-1.83c1.13-.37,2.2.1,3.34-.02l4.6-.49,6.3,1.17,3.47-.6-.51,2.46c-2.44-.68-4.02.63-5.94,1.39s-4.25-.07-6.13.12c-.5.28-1.17.57-1.43,1.09-.13.52.43,1.45.92,1.7l2.72,1.42c.23,1.66,1.2,2.96,2.03,4.22.21.58.45.7.7.35-.17-.96,0-1.56.51-1.79,1.06.09,2.13.37,3.2.83.58.26.71.81,1.34,1.29.51.39,1.85,0,2.55.24,1.35.46,2.1,1.59,3.21,2.33l4,1.18c1.5.44,2.94,1.21,4.18,2.2.83.66.7,2.14.86,3.06l1.71,1.31c-.23,1.07-1.01,1.67-1.8,2.31l-2.02,1.66c-1.18,2.29-2.85,3.14-5.38,2.68-2.05.26-1.83,1.24.11,1.31,2.96.28,5.76-.07,8.39-1.06,1.27-.5,2.35-.48,3.24.08,1.54.17,3.39.36,4.8-.43.05-.03.02-.21-.03-.42.37-.07,1.01-.22,1.5,0l5.73,2.71c-.18,1.21-.8,1.94-1.38,2.65-.1.6-2.34,3.49-2.55,3.55-.1.03-.21.01-.32-.01l-3.2,2.17c-.4.27-1.66-.34-1.99.04l-3.76,4.42c1.09,1.46,1.52,2.96,2.04,4.66,1.02.45,2.1.07,3.26.32.9.2,2.22,1.22,2.64,2.05.46.91.11,2.06.12,3.01l-4.48,2.04c-.81-.28-1.51-.74-2.41-.78l-1.99.73-2.06-.81c-.7.61-1.66,1.32-1.84,2.24l-.81,4.07-2.55,2.68,1.37,3.58,3.38,4.69,4.95,4.35c.78.69.72,2.71.35,3.67l-1.15,2.94-7.19,4.93-4.42.51-2.8,1.11h-1.34c-1.17-.39-2.05-.22-2.64.52-1.35-.65-1.73-.66-1.14-.05-1.52-.09-3.1.08-4.7.46-.96,1.06-1.95,1.91-3.05,2.57l-.3-.74c1.2-1.14-1.29-.86-2.05-.27.24,1.7-.74,2.33-2.94,1.89-.52.41-1.22.44-2.12.06l-.68.24c-2.79.21-5.57.46-8.33.73l.23.23c1.26-.14,2.53-.18,3.81-.13.15-.68,1.38-.84,1.94-.52.82-.15,1.63-.14,2.43.02-.65-.77,1.13-.59,1.79-.43.3.25.68.18,1.16-.21,1.51.22,2.95-.17,4.32-1.17l.52.46c-.32.35-.68.94-1.25,1.13l-4.13,1.41c-.92-.97-1.9-.94-3.1-.79-3.14.39-6.29,1.08-9.44.68l-4.34-2.17c-2.25-.43-4.36-.69-6.4-1.41.09-.25-.12-.33-.64-.24-.2-.04-.46-.19-.88.02.62,1,.97,2.24,1.82,3.06l2.76,1.29,2.85,2.64c.64.59.8,1.84,1.05,2.63l-3.83,6c.39,1.01,1.52,1.86,1.38,2.79l-.71,4.54,6.09,1.98,4.53-.33,4.4.88c.18.87.48,2.13.06,2.76l-2.34,1.16-7.03,1.65c-.79.53-1.88,1.47-2.23,2.34l-1.54,3.71-6.94,3.75-2.33,2.56-4.75,3.28-3.15,3.69c-2.69.02-6.23,1-8.87-.26l-10.1-7.07c-1.14-.8-.3-2.15-1.3-4.52l-3.32-7.91c-.48-1.15-.3-1.54-.08-2.62.31-1.51-1.32-3.01-2.34-3.85-.66-.55-.4-2.29-1.13-2.57-.68-.26-1.21.87-2.46.5-.76-.22-1.4-1.59-.53-3.16l3.97-7.24-2.95-7.33c-.25-.62.05-1.81-.51-2.28-1.13-.95-1.06-2.03-1.2-3.29-.24-2.19.49-3.85.86-5.91l-.78-6.84c.28-.71.85-1.68,1.56-1.93l2.98-1.05c1.77-1.32.24-3.6,2.09-5.9.27-2.09.18-6.14-2.29-6.85l.03-.34c-1.04-.33-2.56-.2-3.42-.04.31.31-.22.88-.58.56-.86-.21-1.74-.21-2.6.02-1.25.18-2.61.26-4.09.25-1.69,1.18-2.75,1.31-3.16.38-.69-.55-1.53-.88-2.51-1-.75.23-1.92.25-2.78.16-.35-.4-1.08-.29-1.65-.16l-2.75.6-10.26-10.25c-2.6-1.21-5.38-1.99-8.23-1.75-1.46,0-2.87.77-3.96,1.23-2.17-.61-4.4-1.32-6.68-.88-1.28.25-2.28,1.62-2.47.72.07-.62-.13-.7-.18-.1-.73.2-1.48-.7-2.23-.8-3.03-.42-6.01-1.57-8.3-3.56-.86-.75-1.38-1.03-1.59-2.19-.15-.84.6-1.49.69-2.3.19-1.69.17-2.95,1.13-4.54.51-.84.03-2.52-.51-3.41-2.05-3.37-4.08-6.52-5.77-10.08-.18-.39-.59-.7-.76-.96l-1.32-2.38s-1.34,0-4.02.03c-.13-.49-.1-.99.1-1.5,1.19-2.47,2.09-3.07,2.48-6.74.18-1.66,0-2.74-.55-4.37-.29-.85.3-2.59.83-3.37,1.52-2.22,2.78-4.46,4.62-6.39,1.05-1.1,2.34-1.82,2.99-3.36.53-1.24,1.66-1.83,2.91-1.67,1.9-1.3,2.76.35,2.7,2.29l3.44-.08c.55-.28,1.27-.29,2.15-.04l.06,1.16c.51.69,1.4,1.52,1.41,2.49l.03,4.21-4.85,4.99-.8,2.08-2.09,1.77c-.08,2.4,1.39,4.17,3,5.71.1.63.22,1.27.35,1.91-.13.96-.15,1.86-.06,2.7.62.01.88.17.79.48-.05.31.73.2.46-.03-.51-.08-.48-.3.06-.33.87.23,1.81-.14,2.67-.69l3.31-2.14,2.06-4.05c-1.63-3.3-2-6.85-1.88-10.58.05-1.55-.08-2.88-1.05-4.02-.14-.87.54-.99,1.04-.9.22-.17.61.72.61.83,0,.33-.48-2.27-.23-2.89l-.44-.05c-.16,1.1-.49,2.02-1.01,2.75-.65-1.59-.23-3.27,1.28-5.04,2.25-1.08,4.65-2.48,7.24-2.97l4.95-.94,3.05-1.5c.44.17.54.06.29-.3-.11-.41.09-.93.31-1.2.14,0,.28.01.38.08.73.49,1.61,1.04,2.48,1.44,1.26.59,1.54.69,2.65-.12l.59-.23c.34.2.51.61.51,1.22-.12-.75.03-1.26.43-1.51.18-1.15.08-2-.85-2.95-2.91-2.99-5.71.22-6.26.05-1.06-.33-2.01-2.5-1.93-4.17l3.41-4.16c.32-.4,3.87-2.25,4.97-1.46Z"/>
            <g>
              <path class="cls-4" d="M212.06,198.03c-.02.07-.16.16-.23.17-1.1.11-2.61,2.14-5.01,1.05l.46,1c-1.94-.24-2.62-1.99-3.24-.7-.8-.16-1.61-.17-2.43-.02-.7.14-1.29.3-1.94.52-1.27-.04-2.54,0-3.81.13-.69.02-1.77.28-2.44-.14l-2.18-1.34c1.04-.39,1.77.27,2.51.73,1.07.66,2.46.04,3.48.23,1.4.26,2.19-.42,3.23-.52,2.47-.24,4.84-.13,7.26-.82l1.32.2.1-1.82c1.91-1.23,2.59-.6,4.41-.39-.75.7-1.31,1.04-1.5,1.73Z"/>
              <path class="cls-4" d="M90.23,156.62c-.11.03-.15-.08-.18-.1-.76-.47-1.41-1.16-2.26-1.33l-3.18-.64-3.85-1.8c2.22-.94,2.59.71,3.62.49.54-.11.85-.48,1.3-.95.6-.62,1.51,0,2.21.13l1.66.33c.39.08.33.98.05,1.26-.2.2-.56.32-1.1.71.93.99,2.19,1.16,3.6.77-.64.47-1.14.93-1.85,1.12Z"/>
              <path class="cls-4" d="M129,166.95c.98.11,1.82.44,2.51,1,.29.1.52.81,1.18.47.49-.25,1.12-1.02,1.79-1.03l4.27-.06c.84-.23,1.75-.23,2.6-.02.25,0,.49-.35.58-.56,1.02-.19,2.37-.27,3.42.04.26.3.71.65,1.2.83,1,.37.85,1.43,1.01,2.28l.59,3.12c.11.57-.3.68-.53.96-.05-1.89-.39-3.78-.81-5.7-1.39-1.12-3.03-1.59-4.66-1.12-.49.97-1.2.56-2,.55l-4.84-.09c-1.21-.02-2.15,1.73-3.64,1-1.23-.6-2.65-1.42-4.05-1.21-.69.1-.96.19-1.38-.3,1.02-.39,1.82-.4,2.78-.16Z"/>
              <path class="cls-4" d="M228.17,133.81c-.64.17-.79.42-.44.74l1.88.17c2.21.04,4.58-.12,6.75-1.07,1.51-.67,3.16-1.01,4.53-.08.05.51-.8.51-1.19.31-.85.62-2.31-.86-4.8.86-2.82.3-8.18.6-8.69-.23s1.8-1.58,4.23-.98l1.81-1.26c.38-.78.57-.96,1.1-1.39-.68,2.3-2.91,3.4-5.17,2.92Z"/>
              <path class="cls-4" d="M224.93,194.53l-3.15,1.29c-.72.29-1.43-.67-1.96-.82l-2.68-.76c2.41-.78,3.41.42,3.69.3.22-.09.44-.6.59-.98,1.73.53,3.11.21,3.51.96Z"/>
              <path class="cls-4" d="M115.11,95.96c-.07.14-.3.34-.47.45-.15.1.38.29.56.68-1.68.4-3.07-.59-4.54-1.46-.19-.11-.77.09-.9-.04-.19-.2-.22-.76-.17-1.03.1-.12.28-.55.52-.41,1.78,1.07,3.65,2.34,4.99,1.8Z"/>
              <path class="cls-4" d="M244.47,133.03l2.16.82c.12.05.47-.14.58.16.06.16,0,.34-.15.42-.14.06-.4-.03-.5-.13-1.06-1.02-1.9-.12-2.93-.1l-3.31.09c-.2,0-.44-.06-.52-.12s-.13-.17-.1-.29c.28-.2.84-.32,1.19-.31.87.25,1.86.26,2.54-.4.35-.14.65-.29,1.03-.15Z"/>
              <path class="cls-4" d="M219.32,115.31c-1.25.1-2.38-.95-3.19-.52-.41.22-.56.89-.19,1.21.18-.39.59-.58.74-.45s.49.4.49.58c0,.23-.65.74-1.81.74-.5,0-.48-.56-.45-.94.16.11.26.26.58.35-.06-.73-.1-1.34.02-1.98,1.51-.35,2.63.48,3.81,1.01Z"/>
              <path class="cls-4" d="M85.79,123.51c.84.8.35,2.54.47,4.44l1.12.3-.06.33c-.14.25-.32.26-.46.03-.13-.33-.51-.21-.53-.02-.02.13-.26.69-.38.63-1.45-.65,1-3.22-.42-4.95-.13-.16-.51-.31-.45-.61.08-.47.29.11.71-.15Z"/>
              <path class="cls-4" d="M153.59,107.57c.07.04.15.05.24.04.32-.05.48.08.64.33.09.14,0,.38-.18.38h-.58c-1.58.64-3.13,1.06-4.65.25,1.65-.07,3.28-.42,4.54-.99Z"/>
              <path class="cls-4" d="M137.6,102.75c-.63,1.29-.32,2.75.27,4.03-.07-.32-.76-.63-1.06-.82l-.07-3.2c.35-.11.68-.07.86,0Z"/>
              <path class="cls-4" d="M115.69,95.72l.94-.29c-.04.49.51,1.4.06,1.97-.19.24-1.1.11-1.17-.24-.11-.55.07-1.04.18-1.44Z"/>
              <path class="cls-4" d="M117.44,91.48c-.77-1.13.16-2.83-.85-5.53-.48.11-.72-.16-.72-.83-.44-.61-.91-1.77.07-1.97l.03-.4c.19.13.49.26.53.67.14,1.48.81,2.83.85,4.31l.09,3.75Z"/>
              <path class="cls-4" d="M93.48,103.75c.7-.12.62,1.94.06,2.11-.04.04-.05.3-.1.4-.09.18-.55,0-.75.16-.07.06-.13.23-.19.34-1.02-1.2-.67-3.28.6-4.41.24-.21.45-.78.66-.88-.05,1.45-2.18,2.42-1.3,4.78.15-1.17.28-1.91,1.03-2.5Z"/>
              <path class="cls-4" d="M243.44,133.18c-.39.99-1.82.89-2.54.4.87.03,1.73-.07,2.54-.4Z"/>
              <path class="cls-4" d="M183.18,197.04c-.2-.07-.47-.05-.64-.24l.63-.51c.33-.27.73-.04.85.39-.43.06-.67.19-.85.36Z"/>
              <path class="cls-4" d="M108.99,96.06c.12-.06.22-.2.29-.3.25-.17.5-.01.48.2-.02.19-.04.61-.28.64-.18.03-.47-.43-.49-.54Z"/>
              <path class="cls-4" d="M218.94,104.41c.76.28,1.57.22,2.34.03.33-.18.94-.06,1.31-.59.21.26.24.72.12.97-.34.24-1,.68-1.44.7-.76-.18-1.57-.19-2.33.03-.77,1.01-1.9,1.55-3.17.78-1.66.48-3.18.57-4.88.56l-1.67.86c-.37.19-.53-.76-.16-1.07.67-.56,1.13-1.33.97-2.22l-4.62.02c.05,1.11-.77,2.17-1.86,2.4-.47.1-1.15-.38-1.59.61-.55-.45-.85-.7-1.45-.84-.35.58-.74,1-1.16,1.14-.7.24-3.43-.85-2.84-1.84.51,0,1.38.28,1.73-.23-2.52-.59-3.35,1.8-4.15.54l2.37-1.22c.55.22,1.15.19,1.7-.04.75,1.07,2.01.63,3.15.7,1.23.08,2.33.3,3.2-.68-1.73-.84-.34-.21.93-1.12,1.75.22,3.68.24,5.44-.05,1.47-.69,2.83-.87,4.38-.04l1.57.1c.78.43,1.4.51,2.12.5Z"/>
              <path class="cls-4" d="M192.43,222.15l3.59.21c-1.39.62-3.13.09-3.31.45-.28.56,1.57.29,3.07.77-.09.14-.56.76-.35.9.39.25.47.4.46.67-.05,1.1-2.49.23-3.9,1.04l2.06.95c-.99.23-1.67.08-2.3.83-.52-.34-.68-.83-1.02-1.32l-4.17-.2-.03-5.02c0-.3-.12-.86.22-1.08.25-.16,1.09-.1.92.37-1.02-.43-1.04.73-.33.63,1.22-.85,1.85-.42,2.9-.03l2.17.81Z"/>
              <path class="cls-4" d="M115.94,83.15c-.02.4-.07,1.03.25,1.41.42.5.25,1.02.39,1.39-.01.65-.19,1.44.01,2.02.09.65-.04.93-.41.82-.7.81-.72,2.1,0,3.04.32.42.82.51,1.37.28.15.55-.1.91-.15,1.34-.09.25-.2.25-.32,0-.09-.5-.94-.86-1.19-1.29-.65-1.17-1.21-1.53-2.54-1.55-.9-.01-1.51-.09-2.21.67-.44.49-1.28.85-1.87.48-.41-.26-1.08-1.08-.73-1.72.51.44.97.2,1.63.2l2.79-.02c.52,0,.98-.27,1.2-.5.39-.4.32-2.69-.38-4.32.05-.52.78-1.01,1.27-1.4l-1.29-.6c.79-.68,1.52-.57,2.19-.25Z"/>
              <path class="cls-4" d="M172.25,245.53c.39.57-.63,1.45-1.45,1.44l-7.18-.09c-.96-.01-1.23-1.3-1.85-1.61s-1.44-.05-1.91-1.14c.68-.04.83-.62,1.22-1.2.39-.57,2.22-.29,2.32.34l.5,3.18c2.04-.64,3.86-.33,6.28-.09l-1.89-1.52c1.21-.92,2.91-.83,3.96.7Z"/>
              <path class="cls-4" d="M238.55,147.55l-.67,3.09c-.47,0-1.04-.62-1.03-1.21l.05-3.66c1.11-.06,1.65-.48,2.14-1.39.32-.61,1.38-1.44,2.05-1.41l2.37.12c.53.03,1.02,0,1.11.61-.71.04-2.1-.4-2.64.18l-3.39,3.68Z"/>
              <path class="cls-4" d="M197.93,226.04l.87-.62c-.42-.31-.59-.61-.62-.86-.12-.88,1.5-.71,1.7-.9.12-.12.03-.6-.11-.69s-.41-.23-.76-.24l-.93-.02c-.21,0-.02-.8.19-.8.94.02,2.2.31,2.98.94.53.44.51,1.45.64,2.07-1.5.1-2.39,1.62-3.95,1.12Z"/>
              <path class="cls-4" d="M111.1,156.31c-2.15,0-3.87-1.57-6.08-1.03.1-1.17,1.97-.18,3.82-.55.38-.08,1.13-.84,1.44-.14.22.5.15,1.3.82,1.72Z"/>
              <path class="cls-4" d="M230.52,170.56c.62,2.68,2.96,3.86,2.43,4.83-.08.14-.34.34-.56.29-.15-.04-.26-.49-.42-.62-1.4-1.15-2.2-2.58-1.45-4.5Z"/>
              <path class="cls-4" d="M146.85,109.64h-5.82c-.26-.08-.49-.28-.55-.58h6.91c-.05.3-.29.51-.55.58Z"/>
              <path class="cls-4" d="M93.54,105.86l-.06-2.11c.1-.08.24-.29.21-.42-.07-.3.71-.39.7-.09l-.16,3.8c-.66-.3-.69-.86-.7-1.18Z"/>
              <path class="cls-4" d="M232.13,192.52c-1.51.35-2.77.18-4.25.14.54-1.21,2.2-.75,4.25-.14Z"/>
              <path class="cls-4" d="M94.09,115.7l-.05-7.08c.05-.11.16-.16.23-.16l.06,7.08c-.05.11-.16.16-.24.16Z"/>
              <path class="cls-4" d="M210.87,103.85c-.19.09-.4.34-.85.33l-4.09-.02c-.33,0-.54-.12-.51-.26l5.44-.05Z"/>
              <path class="cls-4" d="M70.46,120.02l-.07-5.06c.05-.11.16-.15.22-.15l.07,5.06c-.05.11-.16.15-.22.15Z"/>
              <path class="cls-4" d="M89.79,109.06l-.07-4.48c.05-.11.15-.15.21-.15l.07,4.48c-.05.11-.15.15-.21.15Z"/>
              <path class="cls-4" d="M86.87,128.6l.46-.03c1.04.34,1.86-.05,3.21-.55-.76,1.17-2.04,1.04-3.45.86-.19.34-.79-.03-.22-.28Z"/>
              <path class="cls-4" d="M141.42,197.03l-.07-4.19c.05-.11.15-.15.21-.15l.07,4.19c-.05.11-.15.15-.21.15Z"/>
              <path class="cls-4" d="M130.11,96.57l-3.9.08c-.11-.05-.15-.15-.15-.21l3.9-.08c.11.05.15.15.15.21Z"/>
              <path class="cls-4" d="M131.5,167.95l-2.51-1c.84.21,2.1-.16,2.51,1Z"/>
              <path class="cls-4" d="M145.35,166.78l-3.42-.04c-.16.12-.34-.23-.25-.23l3.14-.07c.32,0,.53.11.52.34Z"/>
              <path class="cls-4" d="M116.2,88.79l.41-.82c.21.6.39,1.2.14,2.06-.52-.29-.6-.73-.55-1.24Z"/>
              <path class="cls-4" d="M196.02,222.37c-1.17-.04-2.48.2-3.59-.21,1.15.06,2.44-.3,3.59.21Z"/>
              <path class="cls-4" d="M223.3,117.33l-3.35.08c-.11-.05-.15-.16-.15-.19l3.04-.1c.25,0,.35,0,.46.21Z"/>
              <path class="cls-4" d="M71.26,125.7l-3.32.08c-.11-.05-.15-.15-.15-.2l3.32-.08c.11.05.15.15.15.2Z"/>
              <path class="cls-4" d="M196.92,226.75l-2.25-.14,1.81-.45c.1-.03.46.17.44.59Z"/>
              <path class="cls-4" d="M147.21,178.31l-.1-2.77c.07-.11.16-.15.19-.15l.1,2.46c0,.23-.02.35-.2.46Z"/>
              <path class="cls-4" d="M186.64,196.64c-.79.17-1.41.17-2.06-.03.62-.76,1.46-.32,2.06.03Z"/>
              <path class="cls-4" d="M162.41,106.94l-2.75.08c-.11-.05-.15-.15-.15-.2l2.75-.08c.11.05.15.15.15.19Z"/>
              <path class="cls-4" d="M123.78,94.82l-2.48.09c-.11-.06-.15-.15-.15-.18l2.17-.11c.25-.01.35,0,.46.2Z"/>
              <path class="cls-4" d="M124.36,166.65l-2.48.08c-.11-.06-.15-.15-.15-.18l2.17-.11c.23-.01.35.02.46.21Z"/>
              <path class="cls-4" d="M141.35,167.3l-2.6.02c.72-.44,1.88-.44,2.6-.02Z"/>
              <path class="cls-4" d="M103.59,155.11c-.74.19-1.47.08-2.19.09-.1-.06-.15-.15-.15-.17l1.88-.11c.23-.01.35.02.46.2Z"/>
              <path class="cls-4" d="M232.88,164.17c-.19-.74-.09-1.47-.09-2.19.06-.1.15-.15.17-.15.17.84.24,1.9-.08,2.34Z"/>
              <path class="cls-4" d="M221.28,104.44c-.7.39-1.7.54-2.34-.03l2.34.03Z"/>
              <path class="cls-4" d="M221.27,105.52l-2.33.03c.62-.44,1.7-.39,2.33-.03Z"/>
              <path class="cls-4" d="M78.57,150.9c-.19-.74-.09-1.47-.09-2.19.06-.1.15-.15.17-.15.17.84.24,1.9-.08,2.34Z"/>
              <path class="cls-4" d="M157.79,107.5c-.62.2-1.26.1-1.88.09-.11-.05-.15-.15-.15-.2l1.88-.07c.1.06.15.15.15.18Z"/>
              <path class="cls-4" d="M198.16,105c-.39.46-1.36.48-1.7.04l1.7-.04Z"/>
              <path class="cls-4" d="M186.75,218.38c-.2-.42-.13-.88-.11-1.3.06-.09.14-.15.16-.15.2.42.13.88.12,1.3-.08.09-.16.15-.18.15Z"/>
              <path class="cls-4" d="M117.09,93.45h.32c-.06.46.17,1.01-.15,1.49-.3-.57-.09-1.07-.17-1.49Z"/>
              <path class="cls-4" d="M199.67,200.04c-1.16.39-2.57.1-3.81.13.73-.45,2.6-.38,3.81-.13Z"/>
              <path class="cls-4" d="M204.04,199.55l-2.43-.02c.76-.15,1.63-.45,2.43.02Z"/>
            </g>
          </g>
        </g>
      </g>
      <g>
        <g>
          <polyline class="cls-3" points=".5 15.97 .5 .5 16.69 .5"/>
          <polyline class="cls-3" points="320.39 15.97 320.39 .5 304.2 .5"/>
        </g>
        <polyline class="cls-1" points=".5 293.14 .5 308.61 16.69 308.61"/>
        <polyline class="cls-2" points="320.39 293.14 320.39 308.61 304.2 308.61"/>
      </g>
    </g>
  </g>
</svg>